<svg id="HyväLogomark" xmlns="http://www.w3.org/2000/svg" width="110.08" height="110.08" viewBox="0 0 110.08 110.08">
  <path id="Path_11761" data-name="Path 11761" d="M0,55.04C0,4.954,4.954,0,55.04,0s55.04,4.954,55.04,55.04-4.954,55.04-55.04,55.04S0,105.127,0,55.04" transform="translate(0 0)" fill="#f6f7ff"/>
  <path id="Path_11762" data-name="Path 11762" d="M139.641,115.938a22.517,22.517,0,0,0-14.153,5.107V91.826h-17.64L103.3,105.374h8.625v58.244h14.2V134.193a12.806,12.806,0,0,1,10.666-5.918c6.072,0,10.512,3.538,10.512,12.892v22.45h14.153v-22.45c0-18.153-10.769-25.229-21.845-25.229Z" transform="translate(-81.767 -72.682)" fill="#0a23b9"/>
  <path id="Path_11763" data-name="Path 11763" d="M293.722,108.159l3.843-11.479h13.411L307.1,108.159Z" transform="translate(-232.485 -76.524)" fill="#14ffaf"/>
  <path id="Path_11764" data-name="Path 11764" d="M304.21,93.85l-3.189,9.465H289.767l3.169-9.465H304.21m2.811-2.024H291.484l-4.528,13.5h15.517l4.549-13.5Z" transform="translate(-227.13 -72.682)" fill="#0a23b9"/>
</svg>
